<svg xmlns="http://www.w3.org/2000/svg" width="15" height="15" viewBox="0 0 15 15">
  <defs>
    <style>
      .cls-1 {
        fill: #7347c1;
        fill-rule: evenodd;
      }
    </style>
  </defs>
  <path id="Forma_1_copy" data-name="Forma 1 copy" class="cls-1" d="M557.167,3737.67a7.5,7.5,0,1,0,7.5-7.5A7.5,7.5,0,0,0,557.167,3737.67Zm0.578,0a6.9,6.9,0,0,1,.6-2.82l3.3,9.04A6.917,6.917,0,0,1,557.745,3737.67Zm6.922,6.92a7.005,7.005,0,0,1-1.956-.28l2.077-6.04,2.128,5.83a0.518,0.518,0,0,0,.049.1A6.99,6.99,0,0,1,564.667,3744.59Zm5.594-7.05a6.556,6.556,0,0,0,.527-2.48,5.273,5.273,0,0,0-.048-0.72,6.934,6.934,0,0,1-2.593,9.31Zm-1.493-2.13a3.636,3.636,0,0,1,.571,1.91,6.426,6.426,0,0,1-.527,2.23l-0.69,2.31-2.5-7.44c0.418-.02.792-0.07,0.792-0.07a0.286,0.286,0,0,0-.043-0.57s-1.122.09-1.846,0.09c-0.68,0-1.822-.09-1.822-0.09a0.286,0.286,0,0,0-.045.57s0.354,0.05.727,0.07l1.078,2.96-1.515,4.54-2.521-7.5c0.418-.02.793-0.07,0.793-0.07a0.286,0.286,0,0,0-.044-0.57s-1.121.09-1.846,0.09c-0.13,0-.282,0-0.445-0.01a6.916,6.916,0,0,1,10.457-1.3h-0.088a1.194,1.194,0,0,0-1.163,1.22A3.267,3.267,0,0,0,568.768,3735.41Z" transform="translate(-557.156 -3730.16)"/>
</svg>
